# xmcd
#
# Track frame offsets:
#	150
#	12370
#	31172
#	42982
#	52090
#	66845
#	78002
#	89325
#	102265
#	116550
#	130325
#	143942
#
# Disc length: 2071 seconds
# Revision: 0
# Processed by: cddbd v1.5.2PL0 Copyright (c) Steve Scherf et al.
# Submitted via: dBpowerAMP V12.0
#
DISCID=9e08150c
DTITLE=Jerry Wicentowski - Lucky Break
DYEAR=1998
DGENRE=Bluegrass
TTITLE0=Live and Let Live
TTITLE1=Sweet is the Melody
TTITLE2=Tempest of a Jealous Love
TTITLE3=Little Maggie
TTITLE4=They All Faded Away
TTITLE5=Lucky Break
TTITLE6=Venom Wearing Denim
TTITLE7=Conversation in the Womb
TTITLE8=Less and Less
TTITLE9=Dream of the Miner's Child
TTITLE10=Mary of the Wild Moor
TTITLE11=Whose Shoulder Will You Cry On
EXTD=
EXTT0=
EXTT1=
EXTT2=
EXTT3=
EXTT4=
EXTT5=
EXTT6=
EXTT7=
EXTT8=
EXTT9=
EXTT10=
EXTT11=
PLAYORDER=
